<svg width="24" height="24" viewBox="0 0 24 24" fill="none" xmlns="http://www.w3.org/2000/svg">
  <path d="M7.635 10.909c0 .11-.037.165-.11.165-.091 0-.136-.046-.136-.138V9.029c0-.137.082-.205.246-.205.383 0 .719.046.934.373.136.21.199.503.199.863 0 .718-.318 1.077-.954 1.077-.31 0-.466-.073-.466-.228 0-.065.027-.1.082-.1.091 0 .205.1.384.1.437 0 .655-.245.655-.763 0-.537-.227-.845-.62-.845-.081 0-.163.027-.209.063l-.005.543z" fill="currentColor"/>
  <path d="M10.651 10.936c0 .137-.082.201-.246.201s-.246-.064-.246-.2V9.238c0-.047-.018-.083-.055-.11a.208.208 0 00-.118-.036c-.091 0-.191.063-.3.191v1.654c0 .137-.082.201-.246.201s-.246-.064-.246-.2V8.84c0-.137.082-.201.246-.201s.246.064.246.2v.71c.164-.174.346-.26.547-.26.31 0 .468.182.468.546v1.102z" fill="currentColor"/>
  <path d="M11.94 11.137c-.31 0-.465-.182-.465-.546V9.453c0-.283.164-.456.437-.456.118 0 .236.046.355.137.163.128.244.31.244.547v1.147c-.108.21-.299.31-.571.31zm.025-1.557c0-.118-.055-.182-.155-.182-.054 0-.136.046-.227.128v1.065c0 .118.054.182.154.182.055 0 .137-.045.228-.127V9.58z" fill="currentColor"/>
  <path d="M5.49 13.136c-.118-.237-.3-.564-.428-.773l-.528-.872a.428.428 0 00-.364-.2H3.66c-.091 0-.136.045-.136.136v2.436c0 .091.045.137.136.137h.274c.09 0 .136-.046.136-.137v-1.89l.71 1.235c.072.128.181.192.327.192.146 0 .255-.064.328-.192l.71-1.235v1.89c0 .091.045.137.136.137h.273c.091 0 .137-.046.137-.137v-2.436c0-.091-.046-.136-.137-.136h-.51a.428.428 0 00-.364.2l-.528.871c-.127.21-.282.537-.4.774h-.273z" fill="currentColor"/>
  <path d="M19.964 7.038a13.41 13.41 0 00-4.114-1.619c-1.172-.31-2.436-.473-3.769-.473-1.333 0-2.597.164-3.769.474a13.41 13.41 0 00-4.113 1.618c-.31.192-.464.31-.464.437 0 .11.1.264.346.492.919.827 2.051 1.513 3.37 2.035 1.319.523 2.742.79 4.23.79h.8c1.489 0 2.911-.267 4.23-.79 1.32-.522 2.452-1.208 3.37-2.035.246-.228.346-.382.346-.492 0-.127-.154-.245-.463-.437zm-2.07 2.543a13.26 13.26 0 01-5.514 1.173h-.8a13.26 13.26 0 01-5.513-1.173c-.9-.4-1.696-.872-2.363-1.4a.22.22 0 010-.3 12.133 12.133 0 012.335-1.374A12.486 12.486 0 0112.38 5.42c2.19 0 4.221.383 6.04 1.138.899.373 1.696.818 2.363 1.318a.22.22 0 010 .3c-.667.528-1.462 1-2.363 1.4z" fill="currentColor"/>
  <path d="M19.637 18.453c-.4-.5-.953-.827-1.643-1-.408-.1-.89-.154-1.433-.154h-1.115c-.108 0-.163.054-.163.163v2.845c0 .11.055.164.163.164h1.116c.543 0 1.024-.055 1.432-.155.69-.173 1.243-.5 1.643-1 .282-.354.426-.817.426-.936 0-.118-.144-.581-.426-.936v.009zm-1.843 2.171c-.3.073-.653.11-1.051.11h-.708v-2.554h.708c.398 0 .751.036 1.051.109.627.154.953.581.953 1.091 0 .51-.326.937-.953 1.09v.154z" fill="currentColor"/>
  <path d="M13.386 18.016l-1.052 2.618a.383.383 0 01-.354.246h-.364c-.118 0-.173-.064-.173-.146 0-.027.01-.064.027-.1l1.507-3.573a.507.507 0 01.473-.31h.418c.2 0 .373.11.472.31l1.507 3.573c.019.036.028.073.028.1 0 .082-.055.146-.173.146h-.364a.383.383 0 01-.354-.246l-1.052-2.618h-.546zm.546-.7l-.273-.71-.273.71h.546z" fill="currentColor"/>
</svg>