<svg viewBox="0 0 24 24" fill="none" xmlns="http://www.w3.org/2000/svg">
  <path d="M12 2C10.9 2 10 2.9 10 4C10 5.1 10.9 6 12 6C13.1 6 14 5.1 14 4C14 2.9 13.1 2 12 2Z" fill="currentColor"/>
  <path d="M8 7C6.9 7 6 7.9 6 9C6 10.1 6.9 11 8 11C9.1 11 10 10.1 10 9C10 7.9 9.1 7 8 7Z" fill="currentColor"/>
  <path d="M16 7C14.9 7 14 7.9 14 9C14 10.1 14.9 11 16 11C17.1 11 18 10.1 18 9C18 7.9 17.1 7 16 7Z" fill="currentColor"/>
  <path d="M12 12C10.3 12 9 13.3 9 15V20C9 21.1 9.9 22 11 22H13C14.1 22 15 21.1 15 20V15C15 13.3 13.7 12 12 12Z" fill="currentColor"/>
  <path d="M5 14C4.4 14 4 14.4 4 15V18C4 18.6 4.4 19 5 19C5.6 19 6 18.6 6 18V15C6 14.4 5.6 14 5 14Z" fill="currentColor"/>
  <path d="M19 14C18.4 14 18 14.4 18 15V18C18 18.6 18.4 19 19 19C19.6 19 20 18.6 20 18V15C20 14.4 19.6 14 19 14Z" fill="currentColor"/>
</svg>